<svg width="21" height="20" viewBox="0 0 21 20" fill="none" xmlns="http://www.w3.org/2000/svg">
<path d="M18.9152 4.82L13.1552 0.789999C11.5852 -0.310001 9.17523 -0.250001 7.66523 0.919999L2.65523 4.83C1.65523 5.61 0.865234 7.21 0.865234 8.47V15.37C0.865234 17.92 2.93523 20 5.48523 20H16.2652C18.8152 20 20.8852 17.93 20.8852 15.38V8.6C20.8852 7.25 20.0152 5.59 18.9152 4.82ZM11.6252 16C11.6252 16.41 11.2852 16.75 10.8752 16.75C10.4652 16.75 10.1252 16.41 10.1252 16V13C10.1252 12.59 10.4652 12.25 10.8752 12.25C11.2852 12.25 11.6252 12.59 11.6252 13V16Z" fill="#2C598D"/>
</svg>
