<svg width="15" height="14" viewBox="0 0 15 14" fill="none" xmlns="http://www.w3.org/2000/svg">
  <path
    d="M14.5 3.99013V3.99163V9.74891C14.5 10.8866 14.1331 11.7403 13.5068 12.3137C12.8747 12.8925 11.9183 13.2405 10.6403 13.2405H4.35967C3.0817 13.2405 2.12545 12.8925 1.49345 12.3131C0.867165 11.739 0.5 10.8836 0.5 9.74204V3.99163C0.5 2.85389 0.86691 2.00023 1.49322 1.4268C2.12529 0.848084 3.0817 0.5 4.35967 0.5H10.6478C11.9259 0.5 12.8821 0.848127 13.5131 1.42659C14.1382 1.99964 14.5034 2.85276 14.5 3.99013ZM8.23908 11.7253L11.4582 8.77799C11.6628 8.59065 11.7856 8.32106 11.7856 8.04508C11.7856 7.7745 11.6743 7.51009 11.4582 7.31218C11.0495 6.93798 10.3962 6.93798 9.9875 7.31218L8.56652 8.6132V2.74811C8.56652 2.14969 8.04511 1.73284 7.50374 1.73284C6.96237 1.73284 6.44096 2.14969 6.44096 2.74811V8.6132L5.01998 7.31218C4.61127 6.93798 3.958 6.93798 3.54929 7.31218C3.11521 7.70962 3.11521 8.38055 3.54929 8.77799L6.7684 11.7253C6.9689 11.9089 7.23316 12.0077 7.50374 12.0077C7.77432 12.0077 8.03858 11.9089 8.23908 11.7253Z"
    fill="#095580" stroke="#005C8E" />
</svg>
