<svg width="27" height="27" viewBox="0 0 27 27" fill="none" xmlns="http://www.w3.org/2000/svg">
  <path
    d="M16.0329 16.8171L11.5714 14.1429V6.42857H13.5V13.1786L17.46 15.5314C16.9329 15.8914 16.4443 16.3286 16.0329 16.8171ZM14.2457 23.04C13.7829 23.1043 13.3329 23.1429 12.8571 23.1429C7.17429 23.1429 2.57143 18.54 2.57143 12.8571C2.57143 7.17429 7.17429 2.57143 12.8571 2.57143C18.54 2.57143 23.1429 7.17429 23.1429 12.8571C23.1429 13.3329 23.1043 13.7829 23.04 14.2457C23.9271 14.3743 24.75 14.6571 25.5086 15.0686C25.6371 14.3486 25.7143 13.6157 25.7143 12.8571C25.7143 5.78571 19.9286 0 12.8571 0C5.78571 0 0 5.78571 0 12.8571C0 19.9286 5.74714 25.7143 12.8571 25.7143C13.6157 25.7143 14.3486 25.6371 15.0686 25.5086C14.6571 24.75 14.3743 23.9271 14.2457 23.04ZM20.5714 16.7143V20.5714H16.7143V23.1429H20.5714V27H23.1429V23.1429H27V20.5714H23.1429V16.7143H20.5714Z"
    fill="black" />
</svg>
