<svg width="23" height="25" viewBox="0 0 23 25" fill="none" xmlns="http://www.w3.org/2000/svg">
  <path
    d="M21.4589 6.37205C21.436 6.37205 21.4017 6.37205 21.3674 6.37205C15.3143 5.75578 9.2726 5.52322 3.28811 6.1395L0.953826 6.37205C0.473238 6.41857 0.049864 6.06973 0.00409378 5.58136C-0.0416764 5.09299 0.3016 4.67439 0.770745 4.62788L3.10503 4.39532C9.1925 3.76742 15.36 4.0116 21.539 4.62788C22.0082 4.67439 22.3514 5.10462 22.3057 5.58136C22.2713 6.03485 21.8937 6.37205 21.4589 6.37205Z"
    fill="#FF1F00" />
  <path
    d="M7.15689 5.19765C7.11112 5.19765 7.06535 5.19765 7.00814 5.18602C6.55044 5.10463 6.23005 4.65114 6.31014 4.18603L6.56188 2.66278C6.74496 1.5465 6.9967 0 9.66277 0H12.6607C15.3383 0 15.59 1.60464 15.7616 2.67441L16.0134 4.18603C16.0935 4.66277 15.7731 5.11626 15.3154 5.18602C14.8462 5.26742 14.4 4.94184 14.3313 4.47672L14.0796 2.9651C13.9194 1.95348 13.8851 1.75581 12.6722 1.75581H9.67421C8.46134 1.75581 8.43846 1.9186 8.26682 2.95347L8.00364 4.4651C7.93499 4.89533 7.56882 5.19765 7.15689 5.19765Z"
    fill="#FF1F00" />
  <path
    d="M14.8345 25H7.4884C3.49495 25 3.33476 22.7558 3.20889 20.9418L2.46512 9.23255C2.43079 8.75581 2.79696 8.33722 3.2661 8.30233C3.74669 8.27908 4.14718 8.63954 4.1815 9.11628L4.92527 20.8256C5.05114 22.593 5.09691 23.2558 7.4884 23.2558H14.8345C17.2375 23.2558 17.2832 22.593 17.3977 20.8256L18.1414 9.11628C18.1758 8.63954 18.5877 8.27908 19.0568 8.30233C19.526 8.33722 19.8921 8.74418 19.8578 9.23255L19.114 20.9418C18.9882 22.7558 18.828 25 14.8345 25Z"
    fill="#FF1F00" />
  <path
    d="M13.0602 18.6045H9.24982C8.78065 18.6045 8.3916 18.2092 8.3916 17.7324C8.3916 17.2557 8.78065 16.8604 9.24982 16.8604H13.0602C13.5293 16.8604 13.9184 17.2557 13.9184 17.7324C13.9184 18.2092 13.5293 18.6045 13.0602 18.6045Z"
    fill="#FF1F00" />
  <path
    d="M14.0219 13.9534H8.30057C7.83143 13.9534 7.44238 13.5581 7.44238 13.0813C7.44238 12.6046 7.83143 12.2092 8.30057 12.2092H14.0219C14.491 12.2092 14.88 12.6046 14.88 13.0813C14.88 13.5581 14.491 13.9534 14.0219 13.9534Z"
    fill="#FF1F00" />
</svg>
