<svg width="28" height="28" viewBox="0 0 28 28" fill="none" xmlns="http://www.w3.org/2000/svg">
  <path
    d="M17.4277 27.5705H9.82289C2.94053 27.5705 0 24.63 0 17.7476V10.1428C0 3.26048 2.94053 0.319946 9.82289 0.319946H12.3578C12.8775 0.319946 13.3084 0.750886 13.3084 1.27055C13.3084 1.79021 12.8775 2.22115 12.3578 2.22115H9.82289C3.97985 2.22115 1.9012 4.2998 1.9012 10.1428V17.7476C1.9012 23.5907 3.97985 25.6693 9.82289 25.6693H17.4277C23.2707 25.6693 25.3494 23.5907 25.3494 17.7476V15.2127C25.3494 14.693 25.7803 14.2621 26.3 14.2621C26.8197 14.2621 27.2506 14.693 27.2506 15.2127V17.7476C27.2506 24.63 24.3101 27.5705 17.4277 27.5705Z"
    fill="#292D32" />
  <path
    d="M9.18798 21.1573C8.41482 21.1573 7.70504 20.8784 7.18538 20.3715C6.56432 19.7504 6.29815 18.8505 6.43757 17.8999L6.98258 14.0848C7.08398 13.3497 7.56562 12.3991 8.08528 11.8794L18.0729 1.8917C20.5951 -0.630566 23.1554 -0.630566 25.6777 1.8917C27.0592 3.27324 27.6803 4.68013 27.5535 6.08702C27.4395 7.22774 26.8311 8.34312 25.6777 9.48384L15.69 19.4715C15.1704 19.9912 14.2198 20.4728 13.4846 20.5742L9.66962 21.1193C9.50485 21.1573 9.34008 21.1573 9.18798 21.1573ZM19.4164 3.23522L9.4288 13.2229C9.18798 13.4637 8.90914 14.0214 8.85844 14.351L8.31343 18.1661C8.26273 18.5336 8.33878 18.8378 8.5289 19.0279C8.71902 19.2181 9.02321 19.2941 9.39078 19.2434L13.2058 18.6984C13.5353 18.6477 14.1057 18.3688 14.3338 18.128L24.3215 8.14032C25.1454 7.31647 25.5763 6.58133 25.6397 5.8969C25.7157 5.07305 25.2848 4.19849 24.3215 3.22254C22.2936 1.19459 20.8993 1.76495 19.4164 3.23522Z"
    fill="#292D32" />
  <path
    d="M23.5739 11.1946C23.4852 11.1946 23.3965 11.1819 23.3204 11.1566C19.987 10.2186 17.338 7.56964 16.4 4.23619C16.2606 3.72921 16.5521 3.20954 17.0591 3.05745C17.5661 2.91803 18.0858 3.20954 18.2252 3.71653C18.9857 6.41624 21.1277 8.55826 23.8274 9.31874C24.3344 9.45817 24.6259 9.9905 24.4865 10.4975C24.3724 10.9284 23.9922 11.1946 23.5739 11.1946Z"
    fill="#292D32" />
</svg>
