<svg width="32" height="27" viewBox="0 0 32 27" fill="none" xmlns="http://www.w3.org/2000/svg">
<g id="&#240;&#159;&#166;&#134; icon &#34;eye&#34;">
<g id="Group">
<path id="Vector" d="M21.1887 13.5076C21.1887 16.4986 18.7718 18.9155 15.7808 18.9155C12.7899 18.9155 10.373 16.4986 10.373 13.5076C10.373 10.5167 12.7899 8.09985 15.7808 8.09985C18.7718 8.09985 21.1887 10.5167 21.1887 13.5076Z" stroke="#095580" stroke-width="2" stroke-linecap="round" stroke-linejoin="round"/>
<path id="Vector_2" d="M15.781 26C21.1133 26 26.0831 22.858 29.5423 17.42C30.9018 15.2901 30.9018 11.71 29.5423 9.58005C26.0831 4.14199 21.1133 1 15.781 1C10.4486 1 5.47884 4.14199 2.01964 9.58005C0.660121 11.71 0.660121 15.2901 2.01964 17.42C5.47884 22.858 10.4486 26 15.781 26Z" stroke="#095580" stroke-width="2" stroke-linecap="round" stroke-linejoin="round"/>
</g>
</g>
</svg>
