<svg width="107" height="108" viewBox="0 0 107 108" fill="none" xmlns="http://www.w3.org/2000/svg">
  <path fill-rule="evenodd" clip-rule="evenodd"
    d="M102 54C102 27.2135 80.2865 5.5 53.5 5.5C26.7135 5.5 5 27.2135 5 54C5 80.7865 26.7135 102.5 53.5 102.5C80.2865 102.5 102 80.7865 102 54ZM53.5 26.1125C54.4647 26.1125 55.3899 26.4957 56.0721 27.1779C56.7543 27.8601 57.1375 28.7853 57.1375 29.75V58.85C57.1375 59.8147 56.7543 60.7399 56.0721 61.4221C55.3899 62.1043 54.4647 62.4875 53.5 62.4875C52.5353 62.4875 51.6101 62.1043 50.9279 61.4221C50.2457 60.7399 49.8625 59.8147 49.8625 58.85V29.75C49.8625 28.7853 50.2457 27.8601 50.9279 27.1779C51.6101 26.4957 52.5353 26.1125 53.5 26.1125ZM53.5 78.25C54.7863 78.25 56.0199 77.739 56.9295 76.8295C57.839 75.9199 58.35 74.6863 58.35 73.4C58.35 72.1137 57.839 70.8801 56.9295 69.9705C56.0199 69.061 54.7863 68.55 53.5 68.55C52.2137 68.55 50.9801 69.061 50.0705 69.9705C49.161 70.8801 48.65 72.1137 48.65 73.4C48.65 74.6863 49.161 75.9199 50.0705 76.8295C50.9801 77.739 52.2137 78.25 53.5 78.25Z"
    fill="#FDF3F3" />
  <path fill-rule="evenodd" clip-rule="evenodd"
    d="M97 54C97 29.975 77.525 10.5 53.5 10.5C29.475 10.5 10 29.975 10 54C10 78.025 29.475 97.5 53.5 97.5C77.525 97.5 97 78.025 97 54ZM53.5 28.9875C54.3653 28.9875 55.1951 29.3312 55.8069 29.9431C56.4188 30.5549 56.7625 31.3847 56.7625 32.25V58.35C56.7625 59.2153 56.4188 60.0451 55.8069 60.6569C55.1951 61.2688 54.3653 61.6125 53.5 61.6125C52.6347 61.6125 51.8049 61.2688 51.1931 60.6569C50.5812 60.0451 50.2375 59.2153 50.2375 58.35V32.25C50.2375 31.3847 50.5812 30.5549 51.1931 29.9431C51.8049 29.3312 52.6347 28.9875 53.5 28.9875ZM53.5 75.75C54.6537 75.75 55.7601 75.2917 56.5759 74.4759C57.3917 73.6601 57.85 72.5537 57.85 71.4C57.85 70.2463 57.3917 69.1399 56.5759 68.3241C55.7601 67.5083 54.6537 67.05 53.5 67.05C52.3463 67.05 51.2399 67.5083 50.4241 68.3241C49.6083 69.1399 49.15 70.2463 49.15 71.4C49.15 72.5537 49.6083 73.6601 50.4241 74.4759C51.2399 75.2917 52.3463 75.75 53.5 75.75Z"
    fill="#F9DBDD" />
  <path fill-rule="evenodd" clip-rule="evenodd"
    d="M91 53.5C91 33.0649 74.4351 16.5 54 16.5C33.5649 16.5 17 33.0649 17 53.5C17 73.9351 33.5649 90.5 54 90.5C74.4351 90.5 91 73.9351 91 53.5ZM54 32.225C54.736 32.225 55.4418 32.5174 55.9622 33.0378C56.4826 33.5582 56.775 34.264 56.775 35V57.2C56.775 57.936 56.4826 58.6418 55.9622 59.1622C55.4418 59.6826 54.736 59.975 54 59.975C53.264 59.975 52.5582 59.6826 52.0378 59.1622C51.5174 58.6418 51.225 57.936 51.225 57.2V35C51.225 34.264 51.5174 33.5582 52.0378 33.0378C52.5582 32.5174 53.264 32.225 54 32.225ZM54 72C54.9813 72 55.9224 71.6102 56.6163 70.9163C57.3102 70.2224 57.7 69.2813 57.7 68.3C57.7 67.3187 57.3102 66.3776 56.6163 65.6837C55.9224 64.9898 54.9813 64.6 54 64.6C53.0187 64.6 52.0776 64.9898 51.3837 65.6837C50.6898 66.3776 50.3 67.3187 50.3 68.3C50.3 69.2813 50.6898 70.2224 51.3837 70.9163C52.0776 71.6102 53.0187 72 54 72Z"
    fill="#F08484" />
</svg>
