<svg width="41" height="41" viewBox="0 0 41 41" fill="none" xmlns="http://www.w3.org/2000/svg">
  <g clip-path="url(#clip0_2509_45321)">
    <path
      d="M1.51678 14.3096H38.9826C39.4455 14.3096 39.8207 14.6848 39.8207 15.1476V38.5638C39.8207 39.0266 39.4455 39.4018 38.9826 39.4018H1.51678C1.05393 39.4018 0.678711 39.0266 0.678711 38.5638V15.1476C0.678711 14.6848 1.05393 14.3096 1.51678 14.3096Z"
      stroke="#4D6F99" />
    <path
      d="M32.2919 16.4844H37.6442V30.5341H32.2919V16.4844ZM8.87579 31.8721V25.8508H2.85449V37.2244H17.5732V31.8721H8.87579ZM33.63 33.2102H37.6442V37.2244H33.63V33.2102ZM20.2493 33.2102H30.9539V37.2244H20.2493V33.2102ZM2.85449 16.4844H6.86869V23.1747H2.85449V16.4844Z"
      fill="#CCD7E1" />
    <path d="M11.5518 17.8232H28.9466V27.8587H11.5518V17.8232Z" fill="#FFFDE9" />
    <path
      d="M20.2498 19.8306C22.5995 16.1757 26.2711 11.9848 26.2711 7.34174C26.3001 5.7154 25.6822 4.1441 24.5531 2.97322C23.424 1.80235 21.8761 1.12773 20.2498 1.09766C18.6235 1.12773 17.0757 1.80235 15.9466 2.97322C14.8175 4.1441 14.1995 5.7154 14.2285 7.34174C14.2285 12.2023 17.6968 16.0251 20.2498 19.8306Z"
      fill="#2C598D" />
    <path
      d="M20.2495 10.4638C22.0969 10.4638 23.5946 8.96608 23.5946 7.1186C23.5946 5.27112 22.0969 3.77344 20.2495 3.77344C18.402 3.77344 16.9043 5.27112 16.9043 7.1186C16.9043 8.96608 18.402 10.4638 20.2495 10.4638Z"
      fill="#E6E6E6" />
    <path d="M18.8252 22.8644L21.6632 20.0264L22.6092 20.9724L19.7712 23.8104L18.8252 22.8644Z" fill="black" />
    <path
      d="M22.6148 20.9724L21.6688 20.0264L20.2498 21.4454L18.8308 20.0264L17.8848 20.9724L19.3038 22.3921L17.8848 23.8111L18.8308 24.7571L20.2498 23.3381L21.6688 24.7571L22.6148 23.8111L21.1958 22.3921L22.6148 20.9724Z"
      fill="#526273" />
  </g>
  <defs>
    <clipPath id="clip0_2509_45321">
      <rect width="40" height="40" fill="white" transform="translate(0.25 0.5)" />
    </clipPath>
  </defs>
</svg>
