<svg width="41" height="40" viewBox="0 0 41 40" fill="none" xmlns="http://www.w3.org/2000/svg">
  <rect x="0.5" width="40" height="40" rx="10" fill="#3B6595" />
  <path
    d="M9.08 23V15.128H10.076V22.148H13.52V23H9.08ZM17.0473 23.144C15.6193 23.144 14.3473 22.028 14.3473 20.096C14.3473 18.14 15.6193 17.024 17.0473 17.024C18.4753 17.024 19.7473 18.14 19.7473 20.096C19.7473 22.028 18.4753 23.144 17.0473 23.144ZM17.0473 22.328C18.0553 22.328 18.7273 21.428 18.7273 20.096C18.7273 18.752 18.0553 17.84 17.0473 17.84C16.0513 17.84 15.3673 18.752 15.3673 20.096C15.3673 21.428 16.0513 22.328 17.0473 22.328ZM23.3512 25.688C21.9232 25.688 20.9392 25.124 20.9392 24.116C20.9392 23.624 21.2632 23.156 21.7912 22.796V22.748C21.5032 22.568 21.2752 22.256 21.2752 21.8C21.2752 21.308 21.6112 20.924 21.9112 20.72V20.672C21.5272 20.36 21.1552 19.796 21.1552 19.1C21.1552 17.828 22.1632 17.024 23.3512 17.024C23.6752 17.024 23.9632 17.084 24.1792 17.168H26.2072V17.924H25.0072C25.2832 18.188 25.4872 18.632 25.4872 19.124C25.4872 20.372 24.5392 21.152 23.3512 21.152C23.0632 21.152 22.7392 21.08 22.4752 20.948C22.2712 21.128 22.1032 21.32 22.1032 21.644C22.1032 22.016 22.3432 22.28 23.1352 22.28H24.2632C25.6192 22.28 26.3032 22.7 26.3032 23.672C26.3032 24.752 25.1632 25.688 23.3512 25.688ZM23.3512 20.492C24.0232 20.492 24.5872 19.952 24.5872 19.1C24.5872 18.248 24.0352 17.744 23.3512 17.744C22.6672 17.744 22.1152 18.248 22.1152 19.1C22.1152 19.952 22.6792 20.492 23.3512 20.492ZM23.4952 25.004C24.6112 25.004 25.3432 24.428 25.3432 23.816C25.3432 23.276 24.9232 23.096 24.1672 23.096H23.1592C22.9312 23.096 22.6552 23.072 22.4032 23C21.9832 23.3 21.8032 23.648 21.8032 23.984C21.8032 24.608 22.4392 25.004 23.4952 25.004ZM29.634 23.144C28.206 23.144 26.934 22.028 26.934 20.096C26.934 18.14 28.206 17.024 29.634 17.024C31.062 17.024 32.334 18.14 32.334 20.096C32.334 22.028 31.062 23.144 29.634 23.144ZM29.634 22.328C30.642 22.328 31.314 21.428 31.314 20.096C31.314 18.752 30.642 17.84 29.634 17.84C28.638 17.84 27.954 18.752 27.954 20.096C27.954 21.428 28.638 22.328 29.634 22.328Z"
    fill="white" />
</svg>
