<svg width="32" height="35" viewBox="0 0 32 35" fill="none" xmlns="http://www.w3.org/2000/svg">
  <path
    d="M29.0325 6.7375L18.6375 0.735C16.94 -0.245 14.84 -0.245 13.125 0.735L2.7475 6.7375C1.05 7.7175 0 9.5375 0 11.515V23.485C0 25.445 1.05 27.265 2.7475 28.2625L13.1425 34.265C14.84 35.245 16.94 35.245 18.655 34.265L29.05 28.2625C30.7475 27.2825 31.7975 25.4625 31.7975 23.485V11.515C31.78 9.5375 30.73 7.735 29.0325 6.7375ZM14.5775 10.0625C14.5775 9.345 15.1725 8.75 15.89 8.75C16.6075 8.75 17.2025 9.345 17.2025 10.0625V19.25C17.2025 19.9675 16.6075 20.5625 15.89 20.5625C15.1725 20.5625 14.5775 19.9675 14.5775 19.25V10.0625ZM17.5 25.6025C17.4125 25.8125 17.29 26.005 17.1325 26.18C16.8 26.5125 16.3625 26.6875 15.89 26.6875C15.6625 26.6875 15.435 26.635 15.225 26.5475C14.9975 26.46 14.8225 26.3375 14.6475 26.18C14.49 26.005 14.3675 25.8125 14.2625 25.6025C14.175 25.3925 14.14 25.165 14.14 24.9375C14.14 24.4825 14.315 24.0275 14.6475 23.695C14.8225 23.5375 14.9975 23.415 15.225 23.3275C15.8725 23.0475 16.6425 23.205 17.1325 23.695C17.29 23.87 17.4125 24.045 17.5 24.2725C17.5875 24.4825 17.64 24.71 17.64 24.9375C17.64 25.165 17.5875 25.3925 17.5 25.6025Z"
    fill="#FF1F00" />
</svg>
