<svg width="21" height="20" viewBox="0 0 21 20" fill="none" xmlns="http://www.w3.org/2000/svg">
  <path
    d="M9.62267 19.0699C4.31847 19.0699 0 14.7908 0 9.53493C0 4.27909 4.31847 0 9.62267 0C14.9269 0 19.2453 4.27909 19.2453 9.53493C19.2453 14.7908 14.9269 19.0699 9.62267 19.0699ZM9.62267 1.39536C5.08828 1.39536 1.4082 5.05119 1.4082 9.53493C1.4082 14.0187 5.08828 17.6745 9.62267 17.6745C14.1571 17.6745 17.8371 14.0187 17.8371 9.53493C17.8371 5.05119 14.1571 1.39536 9.62267 1.39536Z"
    fill="#C7C7C7" />
  <path
    d="M19.4807 20C19.3023 20 19.124 19.9349 18.9831 19.7954L17.1056 17.9349C16.8333 17.6651 16.8333 17.2186 17.1056 16.9488C17.3778 16.6791 17.8284 16.6791 18.1007 16.9488L19.9783 18.8093C20.2505 19.0791 20.2505 19.5256 19.9783 19.7954C19.8375 19.9349 19.6591 20 19.4807 20Z"
    fill="#C7C7C7" />
</svg>
