<svg width="37" height="37" viewBox="0 0 37 37" fill="none" xmlns="http://www.w3.org/2000/svg">
  <path fill-rule="evenodd" clip-rule="evenodd"
    d="M7.70833 4.21081C7.70833 1.82328 18.5 0 18.5 0C18.5 0 29.2917 1.82328 29.2917 4.21081C29.2917 7.39383 27.3286 8.73611 27.3286 8.73611H9.67139C9.67139 8.73611 7.70833 7.39383 7.70833 4.21081ZM20.0417 4.625C20.0417 5.03388 19.8792 5.426 19.5901 5.71512C19.301 6.00424 18.9089 6.16667 18.5 6.16667C18.0911 6.16667 17.699 6.00424 17.4099 5.71512C17.1208 5.426 16.9583 5.03388 16.9583 4.625C16.9583 4.21612 17.1208 3.824 17.4099 3.53488C17.699 3.24576 18.0911 3.08333 18.5 3.08333C18.9089 3.08333 19.301 3.24576 19.5901 3.53488C19.8792 3.824 20.0417 4.21612 20.0417 4.625ZM26.5311 12.6211C27.9597 11.506 27.7377 10.2778 27.7377 10.2778H9.26233C9.26233 10.2778 9.03931 11.506 10.4689 12.6211C10.2058 13.8218 10.2152 15.0663 10.4965 16.2629C10.7777 17.4596 11.3237 18.5779 12.0943 19.5356C12.8649 20.4934 13.8404 21.2662 14.949 21.7971C16.0577 22.3281 17.2713 22.6037 18.5005 22.6037C19.7298 22.6037 20.9434 22.3281 22.052 21.7971C23.1607 21.2662 24.1362 20.4934 24.9067 19.5356C25.6773 18.5779 26.2233 17.4596 26.5046 16.2629C26.7859 15.0663 26.7953 13.8218 26.5321 12.6211M18.5 14.3889C21.2966 14.3889 23.2524 14.0662 24.6173 13.6016C24.6495 13.8592 24.666 14.1217 24.6667 14.3889C24.6655 15.2312 24.4917 16.0643 24.1561 16.8369C23.8206 17.6094 23.3303 18.305 22.7155 18.8808C22.1008 19.4566 21.3746 19.9004 20.5817 20.1847C19.7889 20.469 18.9462 20.5879 18.1056 20.5341C17.265 20.4802 16.4444 20.2547 15.6943 19.8715C14.9443 19.4883 14.2807 18.9554 13.7444 18.3059C13.2082 17.6563 12.8107 16.9038 12.5765 16.0947C12.3423 15.2856 12.2763 14.4372 12.3827 13.6016C13.7486 14.0662 15.7024 14.3889 18.5 14.3889ZM20.0417 24.6667C20.3143 24.6667 20.5757 24.775 20.7684 24.9677C20.9612 25.1604 21.0694 25.4219 21.0694 25.6944V27.1148C21.0693 27.3057 21.0161 27.4927 20.9157 27.655C20.8154 27.8172 20.6718 27.9484 20.5011 28.0337L20.0417 28.2639L20.6347 31.229L24.9925 24.6924C25.2912 24.6924 25.5667 24.6937 25.8188 24.6965C31.3739 25.9637 37 28.5476 37 32.4346V37H0V32.4346C0 28.5476 5.87272 25.9339 11.4268 24.6667C11.4073 24.6708 11.6159 24.6739 11.9973 24.6769L16.4003 31.2804L16.9583 28.2639L16.4989 28.0337C16.3282 27.9484 16.1846 27.8172 16.0843 27.655C15.9839 27.4927 15.9307 27.3057 15.9306 27.1148V25.6944C15.9306 25.4219 16.0388 25.1604 16.2316 24.9677C16.4243 24.775 16.6857 24.6667 16.9583 24.6667H20.0417ZM29.8056 30.1478C29.8056 30.1478 28.4355 29.4633 27.75 28.7778C27.0645 29.4633 25.6944 30.1478 25.6944 30.1478C25.6944 30.1478 26.4118 32.8889 27.75 32.8889C29.0882 32.8889 29.8056 30.1478 29.8056 30.1478Z"
    fill="#2C598D" />
</svg>
