<svg width="179" height="178" viewBox="0 0 179 178" fill="none" xmlns="http://www.w3.org/2000/svg">
  <circle cx="89.5" cy="89" r="89" fill="#D8E7FC" />
  <path
    d="M154.733 88.7091C154.733 82.4473 163.269 75.0792 161.725 69.2766C160.118 63.2757 149.004 61.1989 145.967 55.9389C142.93 50.679 146.604 39.9609 142.273 35.6298C137.942 31.2987 127.309 35.0349 121.966 31.9458C116.623 28.8566 114.661 17.7941 108.64 16.1869C102.838 14.6423 95.5016 23.1793 89.209 23.1793C82.9165 23.1793 75.5804 14.6423 69.7783 16.1869C63.778 17.7941 61.7013 28.9088 56.4419 31.9458C51.1824 34.9828 40.4653 31.3092 36.1346 35.6402C31.8039 39.9713 35.5398 50.606 32.4509 55.9494C29.362 61.2928 18.3005 63.2548 16.6935 69.2766C15.1177 75.0792 23.6852 82.4473 23.6852 88.7091C23.6852 94.9709 15.149 102.339 16.6935 108.142C18.3005 114.142 29.4142 116.219 32.4509 121.479C35.4876 126.739 31.8144 137.457 36.145 141.788C40.4757 146.119 51.1094 142.383 56.4523 145.472C61.7953 148.562 63.7571 159.624 69.7783 161.231C75.5804 162.776 82.9165 154.239 89.209 154.239C95.5016 154.239 102.838 162.776 108.64 161.231C114.64 159.624 116.717 148.509 121.976 145.472C127.236 142.435 137.953 146.109 142.283 141.778C146.614 137.447 142.878 126.812 145.967 121.469C149.056 116.125 160.118 114.163 161.725 108.142C163.3 102.339 154.733 94.9709 154.733 88.7091Z"
    fill="#2F80ED" />
  <path
    d="M91.0537 117.6L62.4806 87.7011C61.8242 87.0109 61.4721 86.0911 61.5017 85.1442C61.5314 84.1973 61.9403 83.3008 62.6386 82.652C63.3369 82.0031 64.2674 81.6551 65.2253 81.6844C66.1833 81.7136 67.0902 82.1179 67.7466 82.8082L90.1796 106.294L118.51 65.6931C118.768 65.2815 119.107 64.9258 119.508 64.6478C119.909 64.3698 120.363 64.1753 120.842 64.076C121.321 63.9767 121.816 63.9747 122.296 64.0702C122.776 64.1656 123.231 64.3566 123.634 64.6314C124.037 64.9062 124.379 65.2591 124.64 65.6686C124.901 66.0782 125.075 66.536 125.151 67.014C125.228 67.4921 125.205 67.9805 125.084 68.4496C124.964 68.9187 124.748 69.3587 124.45 69.7428L91.0537 117.6Z"
    fill="white" />
</svg>
