<svg width="27" height="27" viewBox="0 0 27 27" fill="none" xmlns="http://www.w3.org/2000/svg">
  <path
    d="M26.0453 9.24883C27.6603 7.63391 26.9239 5.74769 26.0453 4.83042L22.1693 0.954615C20.5414 -0.660303 18.668 0.0760996 17.7507 0.954615L15.5543 3.16382H12.208C9.7532 3.16382 8.33199 4.45576 7.60847 5.94148L1.87199 11.6777V16.8454L0.954665 17.7498C-0.660337 19.3776 0.0761036 21.2509 0.954665 22.1682L4.83067 26.044C5.52835 26.7416 6.27771 27 6.98831 27C7.90563 27 8.74543 26.5478 9.24932 26.044L12.7377 22.5428H17.376C19.5724 22.5428 20.6835 21.1734 21.0841 19.8298C22.544 19.4422 23.3451 18.3311 23.6681 17.2459C25.6707 16.7291 26.42 14.83 26.42 13.4993V9.62349H25.6577L26.0453 9.24883ZM23.836 13.4993C23.836 14.0807 23.5905 14.7912 22.544 14.7912H21.252V16.0832C21.252 16.6645 21.0065 17.3751 19.96 17.3751H18.668V18.667C18.668 19.2484 18.4225 19.959 17.376 19.959H11.6783L7.44051 24.1965C7.03999 24.5712 6.80743 24.3515 6.66531 24.2094L2.80223 20.3595C2.42755 19.959 2.64719 19.7264 2.78931 19.5843L4.45599 17.9048V12.7371L7.03999 10.1532V12.2074C7.03999 13.7706 8.07359 16.0832 10.916 16.0832C13.7584 16.0832 14.792 13.7706 14.792 12.2074H23.836V13.4993ZM24.2107 7.41428L22.0143 9.62349H12.208V12.2074C12.208 12.7887 11.9625 13.4993 10.916 13.4993C9.86948 13.4993 9.624 12.7887 9.624 12.2074V8.33156C9.624 7.73727 9.84364 5.74769 12.208 5.74769H16.6137L19.5595 2.80208C19.96 2.42742 20.1926 2.64705 20.3347 2.78916L24.1978 6.63912C24.5725 7.03962 24.3528 7.27217 24.2107 7.41428Z"
    fill="black" />
</svg>
