<svg width="146" height="146" viewBox="0 0 146 146" fill="none" xmlns="http://www.w3.org/2000/svg">
  <g id="&#240;&#159;&#166;&#134; icon &#34;verify&#34;">
    <path id="Vector"
      d="M142.706 63.7997L132.781 52.2694C130.884 50.0801 129.351 45.9934 129.351 43.0744V30.6684C129.351 22.9328 123.002 16.5839 115.267 16.5839H102.861C100.015 16.5839 95.8549 15.0514 93.6656 13.154L82.1353 3.22921C77.0999 -1.0764 68.8536 -1.0764 63.7452 3.22921L52.2876 13.227C50.0983 15.0514 45.9387 16.5839 43.0926 16.5839H30.4677C22.7322 16.5839 16.3832 22.9328 16.3832 30.6684V43.1473C16.3832 45.9934 14.8507 50.0801 13.0263 52.2694L3.17448 63.8727C-1.05816 68.9081 -1.05816 77.0815 3.17448 82.1168L13.0263 93.7201C14.8507 95.9094 16.3832 99.9961 16.3832 102.842V115.321C16.3832 123.057 22.7322 129.406 30.4677 129.406H43.0926C45.9387 129.406 50.0983 130.938 52.2876 132.835L63.8182 142.76C68.8536 147.066 77.0999 147.066 82.2083 142.76L93.7385 132.835C95.9278 130.938 100.015 129.406 102.934 129.406H115.34C123.075 129.406 129.424 123.057 129.424 115.321V102.915C129.424 100.069 130.957 95.9094 132.854 93.7201L142.779 82.1898C147.011 77.1544 147.011 68.8351 142.706 63.7997ZM103.298 59.2022L68.0508 94.4498C67.0292 95.4715 65.6426 96.0553 64.1831 96.0553C62.7236 96.0553 61.337 95.4715 60.3153 94.4498L42.6547 76.7896C40.5384 74.6732 40.5384 71.1704 42.6547 69.054C44.7711 66.9377 48.2739 66.9377 50.3902 69.054L64.1831 82.8466L95.563 51.4666C97.6793 49.3503 101.182 49.3503 103.298 51.4666C105.415 53.583 105.415 57.0858 103.298 59.2022Z"
      fill="#189124" />
  </g>
</svg>
